<svg width="200" height="200" viewBox="0 0 200 200" fill="none" xmlns="http://www.w3.org/2000/svg">
<g clip-path="url(#clip0_441_25)">
<path d="M197.813 1.50005C198.838 2.37583 199.554 3.56004 199.851 4.87578C200.148 6.19152 200.012 7.56816 199.463 8.80005C180.338 51.6751 140.175 110.925 110.775 141.8C102.534 150.437 92.3714 157.007 81.1125 160.975C80.8875 163.813 80.3625 167.7 79.1125 171.825C76.6 180.063 70.775 190.313 57.7625 193.575C45.1604 196.576 32.1003 197.136 19.2875 195.225C16.905 194.849 14.556 194.284 12.2625 193.538C10.1406 192.892 8.16296 191.844 6.4375 190.45C5.29964 189.482 4.42285 188.245 3.8875 186.85C3.22398 185.061 3.24178 183.09 3.9375 181.313C5.125 178.25 7.8875 176.563 9.7 175.663C14.625 173.2 17.5125 170 20.5375 165.338C21.725 163.538 22.8375 161.625 24.125 159.438L25.5875 156.963C27.475 153.775 29.6625 150.213 32.4125 146.363C39.0125 137.125 47.425 134.8 54.2375 135.163C55.8125 135.25 57.275 135.475 58.5875 135.763C59.3625 133.613 60.3625 131.013 61.5625 128.163C64.825 120.425 69.7875 110.425 76.4 102.3C103.6 68.9251 153.65 24.7251 190.363 1.00005C191.493 0.270548 192.828 -0.0748265 194.17 0.0152539C195.513 0.105334 196.79 0.626062 197.813 1.50005ZM58.8125 148.9C57.1538 148.179 55.3808 147.755 53.575 147.65C50.5 147.488 46.4125 148.275 42.5875 153.638C40.125 157.075 38.15 160.288 36.3375 163.35L35.025 165.563C33.7 167.825 32.3625 170.088 31.025 172.163C28.4935 176.264 25.2807 179.904 21.525 182.925C30.15 184.325 43.225 184.313 54.7375 181.425C61.725 179.688 65.275 174.313 67.15 168.175C68.0551 165.126 68.584 161.978 68.725 158.8L58.8125 148.9ZM76.8125 149.225C78.3125 148.725 80.275 147.975 82.5375 146.938C89.7383 143.597 96.2471 138.933 101.725 133.188C125.475 108.238 156.875 63.5626 177.375 25.3001C145 49.3876 107.8 83.5501 86.1 110.2C80.575 116.988 76.1625 125.738 73.075 133.025C71.5625 136.625 70.4 139.775 69.6375 142.025L76.8125 149.225ZM14.65 187.225L14.7375 187.163C14.7106 187.183 14.6812 187.212 14.65 187.225Z" fill="#1D2132"/>
</g>
<defs>
<clipPath id="clip0_441_25">
<rect width="200" height="200" fill="white"/>
</clipPath>
</defs>
</svg>
