<svg width="200" height="200" viewBox="0 0 200 200" fill="none" xmlns="http://www.w3.org/2000/svg">
<path d="M156.25 67.5391C156.25 37.1484 130.43 12.5 100 12.5C69.5703 12.5 43.75 37.1484 43.75 67.5781C43.75 79.6875 48.9062 90.625 55.5469 100H55.4297C59.6875 105.859 63.7891 110.82 67.7344 117.578C76.3281 132.344 75 146.602 75.0391 149.453V150H87.5391V100L75.0391 75H81.5234L93.7891 100V150H106.289V100L118.555 75H125L112.5 100V150H125V149.453C125 145.977 123.594 132.344 132.187 117.578C136.133 110.82 140.234 105.859 144.492 100H144.453C151.094 90.625 156.25 79.6875 156.25 67.5391Z" fill="#1D2132"/>
<path d="M112.5 181.25H87.5V187.5H112.5V181.25Z" fill="#1D2132"/>
<path d="M118.75 168.75H81.25V175H118.75V168.75Z" fill="#1D2132"/>
<path d="M118.75 156.25H81.25V162.5H118.75V156.25Z" fill="#1D2132"/>
<g clip-path="url(#clip0_441_7)">
<path d="M151.825 13.12C151.907 13.1901 151.964 13.2848 151.988 13.3901C152.012 13.4953 152.001 13.6055 151.957 13.704C150.427 17.134 147.214 21.874 144.862 24.344C144.203 25.035 143.39 25.5606 142.489 25.878C142.471 26.105 142.429 26.416 142.329 26.746C142.128 27.405 141.662 28.225 140.621 28.486C139.613 28.7261 138.568 28.7709 137.543 28.618C137.352 28.5879 137.165 28.5428 136.981 28.483C136.811 28.4314 136.653 28.3475 136.515 28.236C136.424 28.1586 136.354 28.0596 136.311 27.948C136.258 27.8049 136.259 27.6472 136.315 27.505C136.41 27.26 136.631 27.125 136.776 27.053C137.17 26.856 137.401 26.6 137.643 26.227C137.738 26.083 137.827 25.93 137.93 25.755L138.047 25.557C138.198 25.302 138.373 25.017 138.593 24.709C139.121 23.97 139.794 23.784 140.339 23.813C140.465 23.82 140.582 23.838 140.687 23.861C140.749 23.689 140.829 23.481 140.925 23.253C141.186 22.634 141.583 21.834 142.112 21.184C144.288 18.514 148.292 14.978 151.229 13.08C151.319 13.0217 151.426 12.994 151.534 13.0012C151.641 13.0085 151.743 13.0501 151.825 13.12ZM140.705 24.912C140.572 24.8543 140.43 24.8205 140.286 24.812C140.04 24.799 139.713 24.862 139.407 25.291C139.21 25.566 139.052 25.823 138.907 26.068L138.802 26.245C138.696 26.426 138.589 26.607 138.482 26.773C138.279 27.1012 138.022 27.3923 137.722 27.634C138.412 27.746 139.458 27.745 140.379 27.514C140.938 27.375 141.222 26.945 141.372 26.454C141.444 26.2101 141.487 25.9582 141.498 25.704L140.705 24.912ZM142.145 24.938C142.265 24.898 142.422 24.838 142.603 24.755C143.179 24.4878 143.7 24.1146 144.138 23.655C146.038 21.659 148.55 18.085 150.19 15.024C147.6 16.951 144.624 19.684 142.888 21.816C142.446 22.359 142.093 23.059 141.846 23.642C141.725 23.93 141.632 24.182 141.571 24.362L142.145 24.938ZM137.172 27.978L137.179 27.973C137.177 27.9747 137.175 27.977 137.172 27.978Z" fill="#1D2132"/>
</g>
<defs>
<clipPath id="clip0_441_7">
<rect width="16" height="16" fill="white" transform="translate(136 13)"/>
</clipPath>
</defs>
</svg>
